<mxfile host="65bd71144e">
    <diagram id="kgpKYQtTHZ0yAKxKKP6v" name="Page-1">
        <mxGraphModel dx="760" dy="516" grid="1" gridSize="10" guides="1" tooltips="1" connect="1" arrows="1" fold="1" page="1" pageScale="1" pageWidth="850" pageHeight="1100" math="1" shadow="0">
            <root>
                <mxCell id="0"/>
                <mxCell id="1" parent="0"/>
                <mxCell id="45" value=":Sensor" style="shape=umlLifeline;perimeter=lifelinePerimeter;container=1;collapsible=0;recursiveResize=0;rounded=0;shadow=0;strokeWidth=1;" parent="1" vertex="1">
                    <mxGeometry x="80" y="90" width="80" height="410" as="geometry"/>
                </mxCell>
                <mxCell id="46" value="" style="points=[];perimeter=orthogonalPerimeter;rounded=0;shadow=0;strokeWidth=1;" parent="45" vertex="1">
                    <mxGeometry x="35" y="273" width="10" height="28" as="geometry"/>
                </mxCell>
                <mxCell id="48" value=":Server" style="shape=umlLifeline;perimeter=lifelinePerimeter;container=1;collapsible=0;recursiveResize=0;rounded=0;shadow=0;strokeWidth=1;" parent="1" vertex="1">
                    <mxGeometry x="400" y="90" width="80" height="410" as="geometry"/>
                </mxCell>
                <mxCell id="49" style="edgeStyle=none;html=1;dashed=1;" parent="48" source="50" target="48" edge="1">
                    <mxGeometry relative="1" as="geometry"/>
                </mxCell>
                <mxCell id="50" value="" style="points=[];perimeter=orthogonalPerimeter;rounded=0;shadow=0;strokeWidth=1;" parent="48" vertex="1">
                    <mxGeometry x="35" y="80" width="10" height="40" as="geometry"/>
                </mxCell>
                <mxCell id="104" style="edgeStyle=none;html=1;fontFamily=Helvetica;fontSize=12;fontColor=rgb(240, 240, 240);" parent="48" source="99" target="48" edge="1">
                    <mxGeometry relative="1" as="geometry"/>
                </mxCell>
                <mxCell id="99" value="" style="points=[];perimeter=orthogonalPerimeter;rounded=0;shadow=0;strokeWidth=1;" parent="48" vertex="1">
                    <mxGeometry x="35" y="140" width="10" height="230" as="geometry"/>
                </mxCell>
                <mxCell id="105" value="&lt;font color=&quot;#000000&quot; style=&quot;font-size: 10px;&quot;&gt;check(formData)&lt;/font&gt;" style="edgeStyle=none;html=1;fontFamily=Helvetica;fontSize=12;fontColor=rgb(240, 240, 240);entryX=-0.04;entryY=0.052;entryDx=0;entryDy=0;entryPerimeter=0;align=center;" parent="48" source="99" target="132" edge="1">
                    <mxGeometry x="-0.0677" y="-20" relative="1" as="geometry">
                        <mxPoint x="25.67999999999995" y="167.01599999999996" as="targetPoint"/>
                        <Array as="points">
                            <mxPoint x="10" y="150"/>
                            <mxPoint x="10" y="160"/>
                        </Array>
                        <mxPoint x="-20" y="20" as="offset"/>
                    </mxGeometry>
                </mxCell>
                <mxCell id="109" style="edgeStyle=none;html=1;dashed=1;exitX=-0.02;exitY=1.022;exitDx=0;exitDy=0;exitPerimeter=0;entryX=-0.082;entryY=0.257;entryDx=0;entryDy=0;entryPerimeter=0;" parent="48" target="99" edge="1">
                    <mxGeometry relative="1" as="geometry">
                        <mxPoint x="26.799999999999955" y="180.52800000000002" as="sourcePoint"/>
                        <mxPoint x="33" y="219" as="targetPoint"/>
                        <Array as="points">
                            <mxPoint x="10" y="190"/>
                            <mxPoint x="20" y="200"/>
                        </Array>
                    </mxGeometry>
                </mxCell>
                <mxCell id="110" value="return" style="edgeLabel;html=1;align=center;verticalAlign=middle;resizable=0;points=[];" parent="109" vertex="1" connectable="0">
                    <mxGeometry x="0.1237" y="-1" relative="1" as="geometry">
                        <mxPoint x="-15" y="-6" as="offset"/>
                    </mxGeometry>
                </mxCell>
                <mxCell id="130" style="edgeStyle=none;html=1;entryX=1.011;entryY=0.012;entryDx=0;entryDy=0;entryPerimeter=0;" parent="48" edge="1">
                    <mxGeometry relative="1" as="geometry">
                        <mxPoint x="194.89" y="140" as="sourcePoint"/>
                        <mxPoint x="45.000000000000114" y="140" as="targetPoint"/>
                    </mxGeometry>
                </mxCell>
                <mxCell id="131" value="sendFormData()" style="edgeLabel;html=1;align=center;verticalAlign=middle;resizable=0;points=[];" parent="130" vertex="1" connectable="0">
                    <mxGeometry x="0.1195" y="-2" relative="1" as="geometry">
                        <mxPoint x="10" as="offset"/>
                    </mxGeometry>
                </mxCell>
                <mxCell id="132" value="" style="points=[];perimeter=orthogonalPerimeter;rounded=0;shadow=0;strokeWidth=1;" parent="48" vertex="1">
                    <mxGeometry x="29" y="160" width="10" height="20" as="geometry"/>
                </mxCell>
                <mxCell id="53" value=":Database" style="shape=umlLifeline;perimeter=lifelinePerimeter;container=1;collapsible=0;recursiveResize=0;rounded=0;shadow=0;strokeWidth=1;" parent="1" vertex="1">
                    <mxGeometry x="240" y="90" width="80" height="410" as="geometry"/>
                </mxCell>
                <mxCell id="54" value="" style="points=[];perimeter=orthogonalPerimeter;rounded=0;shadow=0;strokeWidth=1;" parent="53" vertex="1">
                    <mxGeometry x="35" y="230" width="10" height="30" as="geometry"/>
                </mxCell>
                <mxCell id="55" value=":Dashboard" style="shape=umlLifeline;perimeter=lifelinePerimeter;container=1;collapsible=0;recursiveResize=0;rounded=0;shadow=0;strokeWidth=1;" parent="1" vertex="1">
                    <mxGeometry x="560" y="90" width="80" height="410" as="geometry"/>
                </mxCell>
                <mxCell id="75" style="edgeStyle=none;html=1;dashed=1;" parent="55" source="56" target="55" edge="1">
                    <mxGeometry relative="1" as="geometry"/>
                </mxCell>
                <mxCell id="76" style="edgeStyle=none;html=1;dashed=1;" parent="55" source="56" target="55" edge="1">
                    <mxGeometry relative="1" as="geometry"/>
                </mxCell>
                <mxCell id="100" style="edgeStyle=none;html=1;fontFamily=Helvetica;fontSize=12;fontColor=rgb(240, 240, 240);" parent="55" source="56" target="55" edge="1">
                    <mxGeometry relative="1" as="geometry"/>
                </mxCell>
                <mxCell id="56" value="" style="points=[];perimeter=orthogonalPerimeter;rounded=0;shadow=0;strokeWidth=1;" parent="55" vertex="1">
                    <mxGeometry x="35" y="80" width="10" height="290" as="geometry"/>
                </mxCell>
                <mxCell id="67" value="" style="group;dropTarget=0;pointerEvents=0;" parent="1" vertex="1">
                    <mxGeometry width="640" height="45" as="geometry"/>
                </mxCell>
                <UserObject label="Sensor :Register" lucidchartObjectId="xs.zbXxAc2O0" id="68">
                    <mxCell style="points=[[0.318,0.967,0],[0.693,0.967,0]];html=1;overflow=block;blockSpacing=1;whiteSpace=wrap;fontSize=19.7;fontColor=#a9afb8;fontStyle=1;align=center;spacingLeft=7;spacingRight=7;spacingTop=2;spacing=3;strokeOpacity=0;fillOpacity=0;rounded=1;absoluteArcSize=1;arcSize=12;fillColor=#ffffff;strokeWidth=1.5;" parent="67" vertex="1">
                        <mxGeometry width="640" height="31" as="geometry"/>
                    </mxCell>
                </UserObject>
                <UserObject label="" lucidchartObjectId="xs.zP2.pqnG-" id="70">
                    <mxCell style="html=1;jettySize=18;whiteSpace=wrap;fontSize=13;fontFamily=Helvetica;strokeColor=#a9afb8;strokeOpacity=100;strokeWidth=1.5;rounded=0;startArrow=none;endArrow=none;" parent="67" edge="1">
                        <mxGeometry width="100" height="100" relative="1" as="geometry">
                            <Array as="points">
                                <mxPoint x="203" y="50" generated="1"/>
                                <mxPoint x="444" y="50" generated="1"/>
                            </Array>
                            <mxPoint x="200" y="50" as="sourcePoint"/>
                            <mxPoint x="444" y="50" as="targetPoint"/>
                        </mxGeometry>
                    </mxCell>
                </UserObject>
                <mxCell id="71" style="edgeStyle=none;html=1;entryX=1.011;entryY=0.012;entryDx=0;entryDy=0;entryPerimeter=0;" parent="1" source="56" target="50" edge="1">
                    <mxGeometry relative="1" as="geometry"/>
                </mxCell>
                <mxCell id="72" value="addNewSensor(type)" style="edgeLabel;html=1;align=center;verticalAlign=middle;resizable=0;points=[];" parent="71" vertex="1" connectable="0">
                    <mxGeometry x="0.1195" y="-2" relative="1" as="geometry">
                        <mxPoint x="10" as="offset"/>
                    </mxGeometry>
                </mxCell>
                <mxCell id="73" style="edgeStyle=none;html=1;entryX=0.154;entryY=0.122;entryDx=0;entryDy=0;entryPerimeter=0;dashed=1;" parent="1" edge="1">
                    <mxGeometry relative="1" as="geometry">
                        <mxPoint x="445" y="209.87999999999988" as="sourcePoint"/>
                        <mxPoint x="596.54" y="209.87999999999988" as="targetPoint"/>
                    </mxGeometry>
                </mxCell>
                <mxCell id="74" value="formData" style="edgeLabel;html=1;align=center;verticalAlign=middle;resizable=0;points=[];" parent="73" vertex="1" connectable="0">
                    <mxGeometry x="0.1237" y="-1" relative="1" as="geometry">
                        <mxPoint x="-10" y="-1" as="offset"/>
                    </mxGeometry>
                </mxCell>
                <mxCell id="129" value="okay" style="edgeStyle=none;html=1;entryX=0.005;entryY=0.694;entryDx=0;entryDy=0;entryPerimeter=0;dashed=1;exitX=0.989;exitY=1.023;exitDx=0;exitDy=0;exitPerimeter=0;" parent="1" source="46" target="99" edge="1">
                    <mxGeometry relative="1" as="geometry">
                        <mxPoint x="290" y="353.5897435897434" as="sourcePoint"/>
                        <mxPoint x="446.01" y="353.1" as="targetPoint"/>
                    </mxGeometry>
                </mxCell>
                <mxCell id="133" style="edgeStyle=none;html=1;entryX=-0.043;entryY=0.79;entryDx=0;entryDy=0;entryPerimeter=0;dashed=1;exitX=1.153;exitY=0.737;exitDx=0;exitDy=0;exitPerimeter=0;" parent="1" source="99" target="56" edge="1">
                    <mxGeometry relative="1" as="geometry">
                        <mxPoint x="455" y="379.9999999999999" as="sourcePoint"/>
                        <mxPoint x="606.54" y="379.9999999999999" as="targetPoint"/>
                    </mxGeometry>
                </mxCell>
                <mxCell id="134" value="Successful" style="edgeLabel;html=1;align=center;verticalAlign=middle;resizable=0;points=[];" parent="133" vertex="1" connectable="0">
                    <mxGeometry x="0.1237" y="-1" relative="1" as="geometry">
                        <mxPoint x="-10" y="-1" as="offset"/>
                    </mxGeometry>
                </mxCell>
                <mxCell id="135" style="edgeStyle=none;html=1;entryX=0.049;entryY=0.42;entryDx=0;entryDy=0;entryPerimeter=0;dashed=1;" parent="1" edge="1">
                    <mxGeometry relative="1" as="geometry">
                        <mxPoint x="450" y="446" as="sourcePoint"/>
                        <mxPoint x="595.49" y="443.5999999999999" as="targetPoint"/>
                    </mxGeometry>
                </mxCell>
                <mxCell id="136" value="Error" style="edgeLabel;html=1;align=center;verticalAlign=middle;resizable=0;points=[];" parent="135" vertex="1" connectable="0">
                    <mxGeometry x="0.1237" y="-1" relative="1" as="geometry">
                        <mxPoint x="-10" y="-1" as="offset"/>
                    </mxGeometry>
                </mxCell>
                <mxCell id="106" value="alt" style="shape=umlFrame;tabWidth=110;tabHeight=30;tabPosition=left;html=1;boundedLbl=1;labelInHeader=1;width=65;height=15;" parent="1" vertex="1">
                    <mxGeometry y="300" width="640" height="170" as="geometry"/>
                </mxCell>
                <mxCell id="107" value="if formData is okay" style="text" parent="106" vertex="1">
                    <mxGeometry width="100" height="20" relative="1" as="geometry">
                        <mxPoint y="20" as="offset"/>
                    </mxGeometry>
                </mxCell>
                <mxCell id="108" value="[else]" style="line;strokeWidth=1;dashed=1;labelPosition=center;verticalLabelPosition=bottom;align=left;verticalAlign=top;spacingLeft=20;spacingTop=15;" parent="106" vertex="1">
                    <mxGeometry y="117.5131885658201" width="640" height="6.799999999999998" as="geometry"/>
                </mxCell>
                <mxCell id="112" style="edgeStyle=none;html=1;entryX=0.852;entryY=-0.022;entryDx=0;entryDy=0;entryPerimeter=0;" parent="106" target="54" edge="1">
                    <mxGeometry relative="1" as="geometry">
                        <mxPoint x="434.89" y="17.43589743589734" as="sourcePoint"/>
                        <mxPoint x="285" y="17.435897435897438" as="targetPoint"/>
                    </mxGeometry>
                </mxCell>
                <mxCell id="113" value="SaveNewSensor" style="edgeLabel;html=1;align=center;verticalAlign=middle;resizable=0;points=[];" parent="112" vertex="1" connectable="0">
                    <mxGeometry x="0.1195" y="-2" relative="1" as="geometry">
                        <mxPoint x="10" y="1" as="offset"/>
                    </mxGeometry>
                </mxCell>
                <mxCell id="114" value="okay" style="edgeStyle=none;html=1;entryX=-0.126;entryY=0.493;entryDx=0;entryDy=0;entryPerimeter=0;dashed=1;" parent="106" target="99" edge="1">
                    <mxGeometry relative="1" as="geometry">
                        <mxPoint x="280" y="43.58974358974349" as="sourcePoint"/>
                        <mxPoint x="431.53999999999996" y="43.58974358974349" as="targetPoint"/>
                    </mxGeometry>
                </mxCell>
                <mxCell id="127" style="edgeStyle=none;html=1;entryX=1.081;entryY=0.036;entryDx=0;entryDy=0;entryPerimeter=0;" parent="106" target="46" edge="1">
                    <mxGeometry relative="1" as="geometry">
                        <mxPoint x="434.89" y="61.999999999999886" as="sourcePoint"/>
                        <mxPoint x="125.45999999999998" y="64.24000000000001" as="targetPoint"/>
                    </mxGeometry>
                </mxCell>
                <mxCell id="128" value="checkSenso" style="edgeLabel;html=1;align=center;verticalAlign=middle;resizable=0;points=[];" parent="127" vertex="1" connectable="0">
                    <mxGeometry x="0.1195" y="-2" relative="1" as="geometry">
                        <mxPoint x="10" as="offset"/>
                    </mxGeometry>
                </mxCell>
            </root>
        </mxGraphModel>
    </diagram>
</mxfile>
